<?xml version="1.0" encoding="utf-8"?>
<!-- Generator: Adobe Illustrator 22.1.0, SVG Export Plug-In . SVG Version: 6.00 Build 0)  -->
<svg version="1.1" id="Слой_1" xmlns="http://www.w3.org/2000/svg" xmlns:xlink="http://www.w3.org/1999/xlink" x="0px" y="0px"
	 viewBox="0 0 26 26" style="enable-background:new 0 0 26 26;" xml:space="preserve">
<path d="M22.5,4.9v16.3c0,0.4-0.2,0.7-0.4,1c-0.3,0.3-0.6,0.4-1,0.4H4.9c-0.4,0-0.7-0.2-1-0.4c-0.3-0.3-0.4-0.6-0.4-1V4.9
	c0-0.4,0.2-0.7,0.4-1s0.6-0.4,1-0.4h16.3c0.4,0,0.7,0.2,1,0.4C22.4,4.1,22.5,4.5,22.5,4.9z M21.3,4.9c0-0.1,0-0.1-0.1-0.1
	c0,0-0.1-0.1-0.1-0.1H4.9c-0.1,0-0.1,0-0.1,0.1c0,0-0.1,0.1-0.1,0.1v16.3c0,0.1,0,0.1,0.1,0.1c0,0,0.1,0.1,0.1,0.1h16.3
	c0.1,0,0.1,0,0.1-0.1c0,0,0.1-0.1,0.1-0.1V4.9z"/>
</svg>
