<svg width="26" height="26" viewBox="0 0 26 26" fill="none" xmlns="http://www.w3.org/2000/svg">
<path d="M17.9095 10.1417C17.9648 10.1996 18.0081 10.2678 18.037 10.3425C18.0659 10.4171 18.0798 10.4967 18.0779 10.5767C18.076 10.6567 18.0584 10.7355 18.0261 10.8087C17.9938 10.8819 17.9473 10.948 17.8894 11.0033L11.9312 16.6908C11.8178 16.799 11.6671 16.8593 11.5104 16.8593C11.3537 16.8593 11.2031 16.799 11.0897 16.6908L8.11048 13.847C7.99557 13.735 7.9295 13.5821 7.92662 13.4217C7.92374 13.2612 7.98428 13.1061 8.09509 12.99C8.20591 12.8739 8.35804 12.8062 8.51847 12.8016C8.67889 12.797 8.83465 12.8559 8.95192 12.9655L11.5105 15.4076L17.048 10.1217C17.1649 10.0102 17.3213 9.94959 17.4828 9.95334C17.6444 9.95709 17.7978 10.0249 17.9094 10.1417H17.9095ZM22.5469 4.875V21.125C22.5464 21.502 22.3965 21.8634 22.1299 22.1299C21.8634 22.3965 21.502 22.5464 21.125 22.5469H4.875C4.49803 22.5464 4.13662 22.3965 3.87006 22.1299C3.6035 21.8634 3.45356 21.502 3.45312 21.125V4.875C3.45356 4.49803 3.6035 4.13662 3.87006 3.87006C4.13662 3.6035 4.49803 3.45356 4.875 3.45312H21.125C21.502 3.45356 21.8634 3.6035 22.1299 3.87006C22.3965 4.13662 22.5464 4.49803 22.5469 4.875ZM21.3281 4.875C21.3281 4.82114 21.3067 4.76951 21.2686 4.73143C21.2305 4.69335 21.1789 4.67193 21.125 4.67188H4.875C4.82114 4.67193 4.76951 4.69335 4.73143 4.73143C4.69335 4.76951 4.67193 4.82114 4.67188 4.875V21.125C4.67193 21.1789 4.69335 21.2305 4.73143 21.2686C4.76951 21.3067 4.82114 21.3281 4.875 21.3281H21.125C21.1789 21.3281 21.2305 21.3067 21.2686 21.2686C21.3067 21.2305 21.3281 21.1789 21.3281 21.125V4.875Z" fill="black"/>
</svg>
